<svg width="22" height="22" viewBox="0 0 22 22" fill="none" xmlns="http://www.w3.org/2000/svg">
<path fill-rule="evenodd" clip-rule="evenodd" d="M3.47998 0.6H3.39998C3.03358 0.6 2.71838 0.6 2.43998 0.6656C2.00899 0.768584 1.61494 0.988875 1.30146 1.30206C0.987993 1.61525 0.767348 2.00911 0.663976 2.44C0.599976 2.7184 0.599976 3.032 0.599976 3.4V7.4C0.599976 7.7664 0.599976 8.0816 0.665576 8.36C0.768559 8.79098 0.98885 9.18504 1.30204 9.49851C1.61523 9.81198 2.00909 10.0326 2.43998 10.136C2.71838 10.2 3.03198 10.2 3.39998 10.2H7.39998C7.76638 10.2 8.08158 10.2 8.35998 10.1344C8.79096 10.0314 9.18502 9.81113 9.49849 9.49794C9.81196 9.18475 10.0326 8.79089 10.136 8.36C10.2 8.0816 10.2 7.768 10.2 7.4V3.4C10.2 3.0336 10.2 2.7184 10.1344 2.44C10.0314 2.00902 9.8111 1.61496 9.49791 1.30149C9.18472 0.988018 8.79087 0.767373 8.35998 0.664C8.08158 0.6 7.76798 0.6 7.39998 0.6H3.47998ZM2.81278 2.2224C2.88158 2.2064 2.98878 2.2 3.47998 2.2H7.31998C7.81278 2.2 7.91838 2.2048 7.98718 2.2224C8.1309 2.25677 8.2623 2.33028 8.3668 2.43478C8.4713 2.53927 8.54481 2.67067 8.57918 2.8144C8.59518 2.8816 8.59998 2.9872 8.59998 3.48V7.32C8.59998 7.8128 8.59518 7.9184 8.57758 7.9872C8.54321 8.13093 8.4697 8.26233 8.3652 8.36682C8.2607 8.47132 8.1293 8.54483 7.98558 8.5792C7.91998 8.5936 7.81438 8.6 7.31998 8.6H3.47998C2.98718 8.6 2.88158 8.5952 2.81278 8.5776C2.66905 8.54323 2.53765 8.46972 2.43315 8.36522C2.32866 8.26073 2.25515 8.12933 2.22078 7.9856C2.20638 7.92 2.19998 7.8144 2.19998 7.32V3.48C2.19998 2.9872 2.20478 2.8816 2.22238 2.8128C2.25675 2.66907 2.33026 2.53767 2.43475 2.43318C2.53925 2.32868 2.67065 2.25517 2.81438 2.2208L2.81278 2.2224ZM14.68 0.6H14.6C14.2336 0.6 13.9184 0.6 13.64 0.6656C13.209 0.768584 12.8149 0.988875 12.5015 1.30206C12.188 1.61525 11.9673 2.00911 11.864 2.44C11.8 2.7184 11.8 3.032 11.8 3.4V7.4C11.8 7.7664 11.8 8.0816 11.8656 8.36C11.9686 8.79098 12.1889 9.18504 12.502 9.49851C12.8152 9.81198 13.2091 10.0326 13.64 10.136C13.9184 10.2 14.232 10.2 14.6 10.2H18.6C18.9664 10.2 19.2816 10.2 19.56 10.1344C19.991 10.0314 20.385 9.81113 20.6985 9.49794C21.012 9.18475 21.2326 8.79089 21.336 8.36C21.4 8.0816 21.4 7.768 21.4 7.4V3.4C21.4 3.0336 21.4 2.7184 21.3344 2.44C21.2314 2.00902 21.0111 1.61496 20.6979 1.30149C20.3847 0.988018 19.9909 0.767373 19.56 0.664C19.2816 0.6 18.968 0.6 18.6 0.6H14.68ZM14.0128 2.2224C14.0816 2.2064 14.1888 2.2 14.68 2.2H18.52C19.0128 2.2 19.1184 2.2048 19.1872 2.2224C19.3309 2.25677 19.4623 2.33028 19.5668 2.43478C19.6713 2.53927 19.7448 2.67067 19.7792 2.8144C19.7952 2.8816 19.8 2.9872 19.8 3.48V7.32C19.8 7.8128 19.7936 7.9184 19.7776 7.9872C19.7432 8.13093 19.6697 8.26233 19.5652 8.36682C19.4607 8.47132 19.3293 8.54483 19.1856 8.5792C19.1184 8.5952 19.0128 8.6 18.52 8.6H14.68C14.1872 8.6 14.0816 8.5952 14.0128 8.5776C13.869 8.54323 13.7377 8.46972 13.6332 8.36522C13.5287 8.26073 13.4551 8.12933 13.4208 7.9856C13.4064 7.92 13.4 7.8144 13.4 7.32V3.48C13.4 2.9872 13.4048 2.8816 13.4224 2.8128C13.4567 2.66907 13.5303 2.53767 13.6348 2.43318C13.7392 2.32868 13.8706 2.25517 14.0144 2.2208L14.0128 2.2224ZM3.39998 11.8H7.39998C7.76638 11.8 8.08158 11.8 8.35998 11.8656C8.79096 11.9686 9.18502 12.1889 9.49849 12.5021C9.81196 12.8153 10.0326 13.2091 10.136 13.64C10.2 13.9184 10.2 14.232 10.2 14.6V18.6C10.2 18.9664 10.2 19.2816 10.1344 19.56C10.0314 19.991 9.8111 20.385 9.49791 20.6985C9.18472 21.012 8.79087 21.2326 8.35998 21.336C8.08158 21.4 7.76798 21.4 7.39998 21.4H3.39998C3.03358 21.4 2.71838 21.4 2.43998 21.3344C2.00899 21.2314 1.61494 21.0111 1.30146 20.6979C0.987993 20.3847 0.767348 19.9909 0.663976 19.56C0.599976 19.2816 0.599976 18.968 0.599976 18.6V14.6C0.599976 14.2336 0.599976 13.9184 0.665576 13.64C0.768559 13.209 0.98885 12.815 1.30204 12.5015C1.61523 12.188 2.00909 11.9674 2.43998 11.864C2.71838 11.8 3.03198 11.8 3.39998 11.8ZM3.47998 13.4C2.98718 13.4 2.88158 13.4048 2.81278 13.4224C2.66905 13.4568 2.53765 13.5303 2.43315 13.6348C2.32866 13.7393 2.25515 13.8707 2.22078 14.0144C2.20638 14.08 2.19998 14.1856 2.19998 14.68V18.52C2.19998 19.0128 2.20478 19.1184 2.22238 19.1872C2.25675 19.3309 2.33026 19.4623 2.43475 19.5668C2.53925 19.6713 2.67065 19.7448 2.81438 19.7792C2.88158 19.7952 2.98718 19.8 3.47998 19.8H7.31998C7.81278 19.8 7.91838 19.7936 7.98718 19.7776C8.1309 19.7432 8.2623 19.6697 8.3668 19.5652C8.4713 19.4607 8.54481 19.3293 8.57918 19.1856C8.59518 19.1184 8.59998 19.0128 8.59998 18.52V14.68C8.59998 14.1872 8.59518 14.0816 8.57758 14.0128C8.54321 13.8691 8.4697 13.7377 8.3652 13.6332C8.2607 13.5287 8.1293 13.4552 7.98558 13.4208C7.91998 13.4064 7.81438 13.4 7.31998 13.4H3.47998ZM14.68 11.8H14.6C14.2336 11.8 13.9184 11.8 13.64 11.8656C13.209 11.9686 12.8149 12.1889 12.5015 12.5021C12.188 12.8153 11.9673 13.2091 11.864 13.64C11.8 13.9184 11.8 14.232 11.8 14.6V18.6C11.8 18.9664 11.8 19.2816 11.8656 19.56C11.9686 19.991 12.1889 20.385 12.502 20.6985C12.8152 21.012 13.2091 21.2326 13.64 21.336C13.9184 21.4016 14.2336 21.4016 14.6 21.4016H18.6C18.9664 21.4016 19.2816 21.4016 19.56 21.336C19.9907 21.2328 20.3844 21.0124 20.6976 20.6992C21.0107 20.386 21.2311 19.9923 21.3344 19.5616C21.4 19.2832 21.4 18.968 21.4 18.6016V14.6C21.4 14.2336 21.4 13.9184 21.3344 13.64C21.2314 13.209 21.0111 12.815 20.6979 12.5015C20.3847 12.188 19.9909 11.9674 19.56 11.864C19.2816 11.8 18.968 11.8 18.6 11.8H14.68ZM14.0128 13.4224C14.0816 13.4064 14.1888 13.4 14.68 13.4H18.52C19.0128 13.4 19.1184 13.4048 19.1872 13.4224C19.3309 13.4568 19.4623 13.5303 19.5668 13.6348C19.6713 13.7393 19.7448 13.8707 19.7792 14.0144C19.7952 14.0816 19.8 14.1872 19.8 14.68V18.52C19.8 19.0128 19.7936 19.1184 19.7776 19.1872C19.7432 19.3309 19.6697 19.4623 19.5652 19.5668C19.4607 19.6713 19.3293 19.7448 19.1856 19.7792C19.1184 19.7952 19.0128 19.8 18.52 19.8H14.68C14.1872 19.8 14.0816 19.7936 14.0128 19.7776C13.869 19.7432 13.7377 19.6697 13.6332 19.5652C13.5287 19.4607 13.4551 19.3293 13.4208 19.1856C13.4064 19.12 13.4 19.0144 13.4 18.52V14.68C13.4 14.1872 13.4048 14.0816 13.4224 14.0128C13.4567 13.8691 13.5303 13.7377 13.6348 13.6332C13.7392 13.5287 13.8706 13.4552 14.0144 13.4208L14.0128 13.4224Z" fill="#007AFF"/>
</svg>
