<?xml version="1.0" encoding="UTF-8"?>
<!DOCTYPE svg PUBLIC "-//W3C//DTD SVG 1.1//EN" "http://www.w3.org/Graphics/SVG/1.1/DTD/svg11.dtd">
<!-- Creator: CorelDRAW -->
<svg xmlns="http://www.w3.org/2000/svg" xml:space="preserve" width="24" height="24" style="shape-rendering:geometricPrecision; text-rendering:geometricPrecision; image-rendering:optimizeQuality; fill-rule:evenodd; clip-rule:evenodd"
viewBox="0 0 2048 2048"
 xmlns:xlink="http://www.w3.org/1999/xlink">
 <defs>
  <style type="text/css">
   <![CDATA[
    .fil2 {fill:none}
    .fil1 {fill:#424242}
    .fil0 {fill:#424242;fill-rule:nonzero}
   ]]>
  </style>
 </defs>
 <g id="Layer_x0020_1">
  <metadata id="CorelCorpID_0Corel-Layer"/>
  <path class="fil0" d="M659.972 612.671l-230.773 0c-17.6728,0 -32.0008,-14.328 -32.0008,-32.0008 0,-72.5587 29.413,-138.253 76.9678,-185.806 47.5536,-47.5548 113.248,-76.9678 185.806,-76.9678 72.5587,0 138.253,29.413 185.806,76.9678 47.5524,47.5524 76.9678,113.248 76.9678,185.806 0,17.6728 -14.328,32.0008 -32.0008,32.0008l-230.773 0z"/>
  <path class="fil1" d="M1153.54 1715.99l0.034252 1.72205c0.343701,17.4319 7.44804,33.8504 20.0103,45.9532 12.0142,11.5736 28.5024,16.8437 44.8359,18.2906l1.76102 -0.0354331c17.4331,-0.34252 33.8528,-7.44804 45.9555,-20.0114 12.0461,-12.5032 18.5823,-29.1638 18.2587,-46.5237l5.18504 -423.764c13.9146,-5.47559 49.3772,-4.08189 64.6654,-1.14921l14.7851 423.226c0.343701,17.4354 7.44922,33.8504 20.0126,45.9555 12.013,11.576 28.5059,16.8437 44.8406,18.2882l1.75158 -0.034252c17.4366,-0.341339 33.854,-7.44568 45.9579,-20.0103 12.0461,-12.5032 18.5823,-29.1673 18.2599,-46.526 -1.02638,-55.3252 -0.22441,-110.665 0.578741,-165.988 1.59095,-109.732 3.22914,-219.943 -9.3319,-329.166 -8.46024,-73.5591 -31.3146,-144.169 -53.9882,-214.305 -2.74016,-8.4756 -5.47914,-16.9512 -8.19331,-25.4351l-16.2024 -50.6469 169.837 102.199c6.3567,3.82559 12.6118,7.84843 19.0583,11.5193 22.4882,12.8055 46.4929,11.961 67.4788,-3.00473 7.31812,-5.2193 13.6276,-11.9032 18.4831,-19.4634 4.8567,-7.56024 8.33741,-16.0713 10.0441,-24.8977 5.12953,-26.55 -6.16536,-48.802 -27.8634,-64.3524 -29.7473,-21.3201 -62.9186,-39.2268 -93.8729,-58.9193 -29.6327,-18.8516 -59.4473,-37.428 -89.3953,-55.7741 -37.389,-22.904 -75.0154,-45.5138 -113.009,-67.4008 -26.0953,-15.0331 -53.5843,-31.0276 -80.8678,-43.7528 -65.7839,-30.6815 -173.345,-6.41221 -240.03,12.7701 -46.6122,13.4091 -118.042,43.8343 -164.647,57.28l-10.4858 3.02599 -143.641 -162.297c-24.3981,-21.3213 -63.0485,-36.691 -95.5843,-31.4351 -9.24568,1.4941 -18.7925,4.47402 -26.7095,9.57993 -8.16733,5.26772 -14.3339,12.3 -17.3799,21.6142 -6.763,20.6729 5.7815,41.641 18.854,56.7886l177.614 205.803c8.96457,10.3866 16.9358,19.8732 30.0213,25.2236 23.1177,9.45237 38.2878,5.76733 61.7079,0.441733l165.579 -37.6524 109.239 423.276 -3.5563 429.046 -0.0507874 0.543308z"/>
  <path class="fil0" d="M1019.2 457.524c16.4256,-28.5567 43.6973,-50.8359 77.9174,-60.0662 34.1374,-9.20552 68.8642,-3.65315 97.4091,12.7642 28.5555,16.4244 50.8347,43.6973 60.0638,77.9174 9.20552,34.1351 3.65433,68.8619 -12.7642,97.4079 -16.4244,28.5555 -43.6961,50.8347 -77.9174,60.065 -34.1362,9.2067 -68.863,3.65433 -97.4079,-12.7642 -28.5555,-16.4232 -50.8347,-43.6961 -60.0638,-77.9162 -9.2067,-34.1362 -3.65551,-68.8619 12.763,-97.4079z"/>
  <path class="fil0" d="M938.794 612.669c17.6728,0 32.0008,-14.328 32.0008,-32.0008 0,-17.6728 -14.328,-32.0008 -32.0008,-32.0008l-557.643 0c-17.6728,0 -32.0008,14.328 -32.0008,32.0008 0,17.6728 14.328,32.0008 32.0008,32.0008l557.643 0z"/>
  <path class="fil0" d="M691.973 298.048c0,-17.6728 -14.328,-32.0008 -32.0008,-32.0008 -17.6728,0 -32.0008,14.328 -32.0008,32.0008l0 32.967c0,17.6728 14.328,32.0008 32.0008,32.0008 17.6728,0 32.0008,-14.328 32.0008,-32.0008l0 -32.967z"/>
 </g>
 <rect class="fil2" width="24" height="2r"/>
</svg>
