<svg width="24" height="24" viewBox="0 0 24 24" fill="none" xmlns="http://www.w3.org/2000/svg">
<path d="M16 21C15.45 21 14.979 20.804 14.587 20.412C14.195 20.02 13.9993 19.5493 14 19V15C14 14.45 14.196 13.979 14.588 13.587C14.98 13.195 15.4507 12.9993 16 13H20C20.55 13 21.021 13.196 21.413 13.588C21.805 13.98 22.0007 14.4507 22 15V19C22 19.55 21.804 20.021 21.412 20.413C21.02 20.805 20.5493 21.0007 20 21H16ZM16 19H20V15H16V19ZM2 18V16H11V18H2ZM16 11C15.45 11 14.979 10.804 14.587 10.412C14.195 10.02 13.9993 9.54933 14 9V5C14 4.45 14.196 3.979 14.588 3.587C14.98 3.195 15.4507 2.99933 16 3H20C20.55 3 21.021 3.196 21.413 3.588C21.805 3.98 22.0007 4.45067 22 5V9C22 9.55 21.804 10.021 21.412 10.413C21.02 10.805 20.5493 11.0007 20 11H16ZM16 9H20V5H16V9ZM2 8V6H11V8H2Z" fill="black"/>
</svg>
