<svg width="24" height="24" viewBox="0 0 24 24" fill="none" xmlns="http://www.w3.org/2000/svg">
<path d="M16.2856 2.57143H18.857C19.3117 2.57143 19.7477 2.75204 20.0692 3.07353C20.3907 3.39502 20.5713 3.83106 20.5713 4.28571V21.4286C20.5713 21.8832 20.3907 22.3193 20.0692 22.6408C19.7477 22.9622 19.3117 23.1429 18.857 23.1429H5.14275C4.6881 23.1429 4.25206 22.9622 3.93057 22.6408C3.60908 22.3193 3.42847 21.8832 3.42847 21.4286V4.28571C3.42847 3.83106 3.60908 3.39502 3.93057 3.07353C4.25206 2.75204 4.6881 2.57143 5.14275 2.57143H7.71418" stroke="#007AFF" stroke-width="1.71429" stroke-linecap="round" stroke-linejoin="round"/>
<path d="M14.5713 0.85714H9.4284C8.48162 0.85714 7.71411 1.62465 7.71411 2.57143V3.42857C7.71411 4.37534 8.48162 5.14285 9.4284 5.14285H14.5713C15.518 5.14285 16.2855 4.37534 16.2855 3.42857V2.57143C16.2855 1.62465 15.518 0.85714 14.5713 0.85714Z" stroke="#007AFF" stroke-width="1.71429" stroke-linecap="round" stroke-linejoin="round"/>
<path d="M7.71411 9.42857H16.2855M7.71411 13.7143H16.2855M7.71411 18H16.2855" stroke="#007AFF" stroke-width="1.71429" stroke-linecap="round" stroke-linejoin="round"/>
</svg>
